<?xml version="1.0" encoding="UTF-8"?>
<svg id="Layer_1" data-name="Layer 1" xmlns="http://www.w3.org/2000/svg" xmlns:xlink="http://www.w3.org/1999/xlink" viewBox="0 0 7778 4607">
  <defs>
    <style>
      .cls-1 {
        fill: url(#linear-gradient-15);
        fill-opacity: .7;
      }

      .cls-2 {
        fill: url(#linear-gradient-14);
        fill-opacity: .2;
      }

      .cls-3 {
        fill: url(#radial-gradient-7);
      }

      .cls-4 {
        fill: url(#radial-gradient-6);
      }

      .cls-5 {
        fill: url(#radial-gradient-5);
      }

      .cls-6 {
        fill: url(#radial-gradient-4);
      }

      .cls-7 {
        fill: url(#radial-gradient-9);
      }

      .cls-8 {
        fill: url(#radial-gradient-8);
      }

      .cls-9 {
        fill: url(#radial-gradient-3);
      }

      .cls-10 {
        fill: url(#radial-gradient-2);
      }

      .cls-11 {
        fill: url(#linear-gradient-8);
      }

      .cls-12 {
        fill: url(#linear-gradient-7);
      }

      .cls-13 {
        fill: url(#linear-gradient-5);
      }

      .cls-14 {
        fill: url(#linear-gradient-6);
      }

      .cls-15 {
        fill: url(#linear-gradient-9);
      }

      .cls-16 {
        fill: url(#linear-gradient-4);
      }

      .cls-17 {
        fill: url(#linear-gradient-3);
      }

      .cls-18 {
        fill: url(#linear-gradient-2);
      }

      .cls-19 {
        fill: #128414;
      }

      .cls-20 {
        fill: url(#radial-gradient);
      }

      .cls-21 {
        fill: url(#linear-gradient);
      }

      .cls-22 {
        fill: #ab81e9;
      }

      .cls-23 {
        fill: url(#radial-gradient-12);
      }

      .cls-24 {
        fill: url(#radial-gradient-14);
      }

      .cls-25 {
        fill: url(#radial-gradient-13);
      }

      .cls-26 {
        fill: url(#radial-gradient-10);
      }

      .cls-27 {
        fill: url(#radial-gradient-11);
      }

      .cls-28 {
        fill: #0079ff;
      }

      .cls-29 {
        fill: url(#linear-gradient-10);
      }

      .cls-30 {
        fill: url(#linear-gradient-11);
      }

      .cls-31 {
        fill: url(#linear-gradient-12);
      }

      .cls-32 {
        fill: url(#linear-gradient-13);
      }

      .cls-33 {
        fill: url(#linear-gradient-16);
      }

      .cls-34 {
        fill: url(#linear-gradient-17);
      }

      .cls-35 {
        fill: url(#linear-gradient-18);
      }

      .cls-36 {
        fill: #00e1ff;
      }

      .cls-37 {
        fill: #00ba97;
      }
    </style>
    <linearGradient id="linear-gradient" x1="5462.41" y1="3463.87" x2="6725.2" y2="2539.88" gradientTransform="translate(0 4757.49) scale(1 -1)" gradientUnits="userSpaceOnUse">
      <stop offset="0" stop-color="#fda1ff"/>
      <stop offset="1" stop-color="#97c5ff"/>
    </linearGradient>
    <linearGradient id="linear-gradient-2" x1="6541.98" y1="3840.71" x2="6284.59" y2="3412.88" gradientTransform="translate(0 4757.49) scale(1 -1)" gradientUnits="userSpaceOnUse">
      <stop offset=".49" stop-color="#b78efa"/>
      <stop offset="1" stop-color="#8f6ccd"/>
    </linearGradient>
    <linearGradient id="linear-gradient-3" x1="5708.38" y1="3423.86" x2="6483.43" y2="2064.59" gradientTransform="translate(0 4757.49) scale(1 -1)" gradientUnits="userSpaceOnUse">
      <stop offset=".2" stop-color="#fda1ff"/>
      <stop offset=".3" stop-color="#f3a4ff"/>
      <stop offset=".48" stop-color="#d9adff"/>
      <stop offset=".71" stop-color="#afbcff"/>
      <stop offset=".83" stop-color="#97c5ff"/>
    </linearGradient>
    <radialGradient id="radial-gradient" cx="3041.32" cy="3194.55" fx="3041.32" fy="3194.55" r="1" gradientTransform="translate(-314610.72 -374631.32) rotate(53.1) scale(162.24 -9.73)" gradientUnits="userSpaceOnUse">
      <stop offset="0" stop-color="#fff"/>
      <stop offset="1" stop-color="#fff" stop-opacity="0"/>
    </radialGradient>
    <radialGradient id="radial-gradient-2" cx="3041.32" cy="2977.85" fx="3041.32" fy="2977.85" r="1" gradientTransform="translate(-397927.13 -312075.95) rotate(53.1) scale(162.24 -45.43)" xlink:href="#radial-gradient"/>
    <linearGradient id="linear-gradient-4" x1="5746.49" y1="3525.93" x2="6212.76" y2="1834.47" gradientTransform="translate(0 4757.49) scale(1 -1)" gradientUnits="userSpaceOnUse">
      <stop offset="0" stop-color="#eebeff"/>
      <stop offset="1" stop-color="#79edff"/>
    </linearGradient>
    <linearGradient id="linear-gradient-5" x1="7296.63" y1="3533.79" x2="7026.57" y2="2341.71" gradientTransform="translate(0 4757.49) scale(1 -1)" gradientUnits="userSpaceOnUse">
      <stop offset="0" stop-color="#00b99a"/>
      <stop offset="1" stop-color="#009cbd"/>
    </linearGradient>
    <linearGradient id="linear-gradient-6" x1="7276.18" y1="3644.56" x2="6811.16" y2="2210.38" gradientTransform="translate(0 4757.49) scale(1 -1)" gradientUnits="userSpaceOnUse">
      <stop offset="0" stop-color="#00cc9e"/>
      <stop offset=".22" stop-color="#00884a"/>
      <stop offset=".31" stop-color="#008d64"/>
      <stop offset=".55" stop-color="#009a9d"/>
      <stop offset=".75" stop-color="#00a3c7"/>
      <stop offset=".91" stop-color="#00a8e1"/>
      <stop offset="1" stop-color="#00abeb"/>
    </linearGradient>
    <linearGradient id="linear-gradient-7" x1="6957.4" y1="3594.17" x2="7340.99" y2="2709.51" gradientTransform="translate(0 4757.49) scale(1 -1)" gradientUnits="userSpaceOnUse">
      <stop offset="0" stop-color="#3ce6ac"/>
      <stop offset="1" stop-color="#00e3ff"/>
    </linearGradient>
    <radialGradient id="radial-gradient-3" cx="3050.5" cy="2925.66" fx="3050.5" fy="2925.66" r="1" gradientTransform="translate(-804906.46 779756.43) scale(266.17 -266.17)" gradientUnits="userSpaceOnUse">
      <stop offset="0" stop-color="#fff"/>
      <stop offset="1" stop-color="#fff" stop-opacity="0"/>
    </radialGradient>
    <radialGradient id="radial-gradient-4" cx="3072.74" cy="2946.35" fx="3072.74" fy="2946.35" r="1" gradientTransform="translate(-197674.71 197321.84) scale(66.61 -66.61)" xlink:href="#radial-gradient"/>
    <linearGradient id="linear-gradient-8" x1="6746.71" y1="2933.33" x2="7777.85" y2="2933.33" gradientTransform="translate(0 4757.49) scale(1 -1)" gradientUnits="userSpaceOnUse">
      <stop offset="0" stop-color="#00e4ff"/>
      <stop offset="1" stop-color="#00e3f7"/>
    </linearGradient>
    <linearGradient id="linear-gradient-9" x1="5483.97" y1="4511.68" x2="5761.2" y2="3706.61" gradientTransform="translate(0 4757.49) scale(1 -1)" gradientUnits="userSpaceOnUse">
      <stop offset="0" stop-color="#00cdc2"/>
      <stop offset="1" stop-color="#288822"/>
    </linearGradient>
    <linearGradient id="linear-gradient-10" x1="5485.13" y1="4508.33" x2="5761.26" y2="3706.42" xlink:href="#linear-gradient-9"/>
    <linearGradient id="linear-gradient-11" x1="5481.22" y1="4511.26" x2="5751.21" y2="3727.18" gradientTransform="translate(0 4757.49) scale(1 -1)" gradientUnits="userSpaceOnUse">
      <stop offset="0" stop-color="#00cdc3"/>
      <stop offset="1" stop-color="#4fdb5e"/>
    </linearGradient>
    <radialGradient id="radial-gradient-5" cx="3045.92" cy="2921.39" fx="3045.92" fy="2921.39" r="1" gradientTransform="translate(-2109590.38 2030165.66) scale(694.67 -694.67)" xlink:href="#radial-gradient"/>
    <radialGradient id="radial-gradient-6" cx="3035.96" cy="2981.54" fx="3035.96" fy="2981.54" r="1" gradientTransform="translate(20966.29 -876988.84) rotate(96.41) scale(287.83 -28.01)" xlink:href="#radial-gradient"/>
    <linearGradient id="linear-gradient-12" x1="5545.52" y1="4263.74" x2="5796.38" y2="3637.17" xlink:href="#linear-gradient-11"/>
    <radialGradient id="radial-gradient-7" cx="3047.48" cy="2922.85" fx="3047.48" fy="2922.85" r="1" gradientTransform="translate(-1359107.45 1310847.33) scale(448.31 -448.31)" gradientUnits="userSpaceOnUse">
      <stop offset="0" stop-color="#88d2ff"/>
      <stop offset="1" stop-color="#0079ff"/>
    </radialGradient>
    <radialGradient id="radial-gradient-8" cx="3046.18" cy="2921.64" fx="3046.18" fy="2921.64" r="1" gradientTransform="translate(-1928238.09 1856550.68) scale(635.28 -635.28)" xlink:href="#radial-gradient-7"/>
    <linearGradient id="linear-gradient-13" x1="6733.48" y1="4132.21" x2="7286.1" y2="4373.18" gradientTransform="translate(0 4757.49) scale(1 -1)" gradientUnits="userSpaceOnUse">
      <stop offset=".04" stop-color="#62c7ff"/>
      <stop offset=".79" stop-color="#d9b5ff"/>
    </linearGradient>
    <linearGradient id="linear-gradient-14" x1="6922.93" y1="4256.61" x2="7382.51" y2="4080.02" gradientTransform="translate(0 4757.49) scale(1 -1)" gradientUnits="userSpaceOnUse">
      <stop offset="0" stop-color="#c07dff" stop-opacity="0"/>
      <stop offset="1" stop-color="#a855f5"/>
    </linearGradient>
    <radialGradient id="radial-gradient-9" cx="3040.49" cy="2996.88" fx="3040.49" fy="2996.88" r="1" gradientTransform="translate(-464908.3 -668180.32) rotate(61.84) scale(267.03 -33.41)" gradientUnits="userSpaceOnUse">
      <stop offset="0" stop-color="#0079ff"/>
      <stop offset="1" stop-color="#0079ff"/>
    </radialGradient>
    <radialGradient id="radial-gradient-10" cx="3040.36" cy="3064.76" fx="3040.36" fy="3064.76" r="1" gradientTransform="translate(-430974.81 -783993.26) rotate(64.3) scale(294.83 -17.66)" gradientUnits="userSpaceOnUse">
      <stop offset="0" stop-color="#0079ff"/>
      <stop offset="1" stop-color="#0079ff" stop-opacity="0"/>
    </radialGradient>
    <linearGradient id="linear-gradient-15" x1="7106.3" y1="4217.71" x2="7742.34" y2="4047.12" gradientTransform="translate(0 4757.49) scale(1 -1)" gradientUnits="userSpaceOnUse">
      <stop offset="0" stop-color="#0079ff"/>
      <stop offset="1" stop-color="#0079ff" stop-opacity=".5"/>
    </linearGradient>
    <radialGradient id="radial-gradient-11" cx="3047.14" cy="3227.15" fx="3047.14" fy="3227.15" r="1" gradientTransform="translate(-1080245.63 -239146.02) rotate(13.66) scale(365.42 -7.31)" gradientUnits="userSpaceOnUse">
      <stop offset="0" stop-color="#cda2fd"/>
      <stop offset="1" stop-color="#0079ff" stop-opacity="0"/>
    </radialGradient>
    <radialGradient id="radial-gradient-12" cx="3052.64" cy="3029.95" fx="3052.64" fy="3029.95" r="1" gradientTransform="translate(-380741.61 -72081.28) rotate(20.22) scale(127.43 -21.66)" gradientUnits="userSpaceOnUse">
      <stop offset=".11" stop-color="#fff"/>
      <stop offset="1" stop-color="#fff" stop-opacity="0"/>
    </radialGradient>
    <radialGradient id="radial-gradient-13" cx="3046.62" cy="2969.47" fx="3046.62" fy="2969.47" r="1" gradientTransform="translate(-539851.73 -174288.15) rotate(33.25) scale(181.48 -51.69)" xlink:href="#radial-gradient"/>
    <radialGradient id="radial-gradient-14" cx="3046.92" cy="3059.35" fx="3046.92" fy="3059.35" r="1" gradientTransform="translate(-1140991.54 -232362.28) rotate(13.89) scale(384.23 -16.07)" xlink:href="#radial-gradient-10"/>
    <linearGradient id="linear-gradient-16" x1="6350.05" y1="4252.17" x2="7693.25" y2="4252.17" gradientTransform="translate(0 4757.49) scale(1 -1)" gradientUnits="userSpaceOnUse">
      <stop offset="0" stop-color="#88d2ff"/>
      <stop offset="1" stop-color="#f6b6ff"/>
    </linearGradient>
    <linearGradient id="linear-gradient-17" x1="6772.38" y1="4031.21" x2="7039.85" y2="4268.89" gradientTransform="translate(0 4757.49) scale(1 -1)" gradientUnits="userSpaceOnUse">
      <stop offset="0" stop-color="#0079ff"/>
      <stop offset="1" stop-color="#0079ff" stop-opacity="0"/>
    </linearGradient>
    <linearGradient id="linear-gradient-18" x1="6349.68" y1="4250.23" x2="7702.32" y2="4250.23" xlink:href="#linear-gradient-16"/>
  </defs>
  <path d="M5105.47,4561.85v-1552.63h421.14v227.42c92.65-162.84,263.91-261.11,477.3-261.11,328.49,0,527.84,227.42,527.84,595.22v991.1h-421.15v-898.44c0-224.62-87.03-331.31-255.49-331.31-196.54,0-328.5,151.62-328.5,384.65v845.11h-421.14ZM4326.4,4601.15c-510.98,0-850.71-336.92-850.71-811.41s328.5-819.83,786.14-819.83c409.91,0,701.92,280.76,735.61,699.11l-1058.48,381.83c81.42,131.96,235.84,207.76,446.41,207.76,165.65,0,325.69-42.11,443.61-123.54v339.73c-115.11,75.81-306.03,126.35-502.57,126.35ZM3874.38,3753.25l701.91-255.5c-44.92-126.35-160.03-202.15-314.46-202.15-247.07,0-412.72,190.92-387.45,457.65ZM2648.58,4606.77c-620.49,0-1066.91-435.19-1066.91-1024.79s463.26-1030.41,1094.98-1030.41c249.88,0,485.73,64.57,614.88,165.65v393.06c-134.76-123.54-342.53-196.54-555.92-196.54-435.18,0-715.95,269.54-715.95,668.22s269.54,665.41,654.18,665.41c98.27,0,207.76-19.65,297.61-56.16v-446.41h-421.14v-336.91h802.99v971.44c-182.5,143.19-432.38,227.42-704.72,227.42ZM3532.48,2776.03l294.79-634.53-609.25-1353.29h457.65l376.22,867.56,373.42-867.56h426.76l-884.4,1987.82h-435.18ZM2621.46,2380.15c-510.98,0-850.71-336.91-850.71-811.4s328.49-819.83,786.14-819.83c409.91,0,701.92,280.77,735.6,699.1l-1058.47,381.84c81.42,131.96,235.84,207.76,446.41,207.76,165.65,0,325.69-42.12,443.61-123.54v339.73c-115.11,75.8-306.03,126.34-502.57,126.34ZM2169.44,1532.24l701.91-255.49c-44.92-126.35-160.03-202.15-314.46-202.15-247.07,0-412.72,190.91-387.45,457.64ZM.14,2340.84V375.49h426.76v738.41h791.75V375.49h426.77v1965.35h-426.77v-850.71H426.9v850.71H.14Z"/>
  <g>
    <path class="cls-21" d="M6196.5,2625.63s-857.98-657.23-988.74-756.25c-72.81-55.12-151.96-184.25-135.46-285.82,12.27-75.51,55.88-114.29,114.97-134.91,184.06-64.23,768.11-265.93,925.08-316.37,86.54-27.82,223.86-2.37,326.44,81.48,81.25,66.42,145.49,163.74,146.32,289.24,1.86,283.95,16.89,948.48,16.89,1033.98,0,48.76-20.5,131.44-116.6,160.41-93.51,28.19-209.86-11.31-288.89-71.77h0Z"/>
    <path class="cls-18" d="M6432.4,1219.39c81.25,66.41,142.8,158.82,143.63,284.32,1.86,283.95,25.94,947.79,25.94,1033.29,0-85.5-5.72-761.35-7.59-1045.3-1.86-283.95-311.97-431.53-467.02-375.48-155.06,56.04-756.05,268.23-940.11,332.45,184.06-64.23,771-258.48,927.95-308.92,86.54-27.82,214.6-4.22,317.19,79.64h.01Z"/>
    <path class="cls-22" d="M6432.4,1219.39c81.25,66.41,142.8,158.82,143.63,284.32,1.86,283.95,25.94,947.79,25.94,1033.29,0-85.5-5.72-761.35-7.59-1045.3-1.86-283.95-311.97-431.53-467.02-375.48-155.06,56.04-756.05,268.23-940.11,332.45,184.06-64.23,771-258.48,927.95-308.92,86.54-27.82,214.6-4.22,317.19,79.64h.01Z"/>
    <path class="cls-17" d="M6196.5,2625.63s-857.98-657.23-988.74-756.25c-72.81-55.12-151.96-184.25-135.46-285.82,12.27-75.51,55.88-114.29,114.97-134.91,184.06-64.23,768.11-265.93,925.08-316.37,86.54-27.82,223.86-2.37,326.44,81.48,81.25,66.42,153.71,164.72,155.1,290.21,1.38,123.6,1.81,318.53,3.33,506.49,1.99,244.69,3.94,477.63,3.8,526.52-.13,48.76-19.52,131.44-115.62,160.41-93.51,28.19-209.86-11.31-288.89-71.77h0Z"/>
    <path class="cls-20" d="M6438.2,1213.26c81.31,66.33,145.65,163.6,146.6,289.09,2.15,283.95,17.82,948.47,17.89,1033.98-.08-85.5-6.46-761.34-8.6-1045.3-2.15-283.95-312.39-431.22-467.39-375.03-154.99,56.2-755.78,268.96-939.79,333.37,183.99-64.41,767.85-266.68,924.76-317.28,86.51-27.9,223.84-2.59,326.52,81.17Z"/>
    <path class="cls-10" d="M6438.2,1213.26c81.31,66.33,145.65,163.6,146.6,289.09,2.15,283.95,17.82,948.47,17.89,1033.98-.08-85.5-6.46-761.34-8.6-1045.3-2.15-283.95-312.39-431.22-467.39-375.03-154.99,56.2-755.78,268.96-939.79,333.37,183.99-64.41,767.85-266.68,924.76-317.28,86.51-27.9,223.84-2.59,326.52,81.17Z"/>
    <path class="cls-16" d="M6200.85,1111.31c40.05,0,84.14,8.9,127.5,25.74,45.15,17.53,88.48,43.4,125.31,74.77,40.53,34.53,72.62,74.76,95.38,119.57,25.19,49.6,38.16,103.55,38.53,160.37.77,118.02,2.22,305.4,3.64,486.62,2.03,261.6,3.94,508.69,3.94,558.63,0,17.31-2.77,51.29-21.38,84.27-19.1,33.86-49.5,57.28-90.35,69.59-19.79,5.97-41.39,8.99-64.19,8.99-36.25,0-76.1-7.79-115.26-22.53-36.92-13.89-72.64-33.65-103.31-57.11-8.58-6.57-859.48-658.37-988.77-756.26-36.6-27.71-73.72-73.76-99.28-123.19-13.82-26.72-23.8-53.28-29.68-78.95-6.37-27.83-7.67-53.78-3.88-77.14,5.67-34.92,18.18-62.57,38.22-84.53,17.87-19.56,41.49-34.29,72.25-45.02,189.37-66.08,785.24-276.48,940.18-332.48,20.81-7.53,44.75-11.35,71.15-11.35M6200.84,1104.48c-26.7,0-51.63,3.85-73.47,11.74-155.05,56.04-756.04,268.23-940.11,332.46-59.09,20.62-102.7,59.38-114.97,134.9-16.5,101.57,62.65,230.7,135.46,285.83,130.76,99.01,988.74,756.24,988.74,756.24,61.18,46.81,144.72,81.05,222.73,81.05,22.76,0,45.04-2.92,66.16-9.29,96.1-28.96,116.6-111.64,116.6-160.4,0-85.5-5.72-761.35-7.59-1045.3-1.6-243.95-230.71-387.24-393.55-387.24h-.01Z"/>
    <path class="cls-13" d="M6746.72,1471.25c0-77.74,29.66-205.37,99.35-304.33,39.2-55.67,88.62-106.51,139.81-129.8,39.81-18.11,58.87-21.11,106.1-11.36,0,0,572.2,122.7,607.09,129.78,34.89,7.09,72.96,30.77,78.03,103.52,5.07,72.74-14.09,187.71-95.53,306.28-81.44,118.56-577.26,834.74-639.53,924.56-62.26,89.82-155.77,147.16-208.86,133.18-67.37-17.75-81.78-79.83-81.25-122.67.96-79.05-5.22-1029.15-5.22-1029.15h.01Z"/>
    <path class="cls-14" d="M6833.17,2609.88c-62.44-16.95-59.01-64.75-59.61-109.48-1.11-82.66-5.19-1029.15-5.19-1029.15,0-77.74,26.82-190.29,96.51-289.25,39.2-55.67,74.37-97.76,122.58-125.47,37.92-21.8,74.71-26.92,121.93-17.17,0,0,554.77,109.1,589.67,116.18-34.89-7.08-607.09-129.78-607.09-129.78-47.22-9.75-66.29-6.75-106.1,11.36-51.19,23.29-100.61,74.13-139.81,129.8-69.69,98.96-99.35,226.59-99.35,304.33,0,0,6.18,950.11,5.22,1029.15-.53,42.84,13.87,104.92,81.25,122.67,53.09,13.98,146.59-43.35,208.86-133.18-62.27,89.83-155.87,134.37-208.86,119.98h-.01Z"/>
    <path class="cls-37" d="M6833.17,2609.88c-62.44-16.95-59.01-64.75-59.61-109.48-1.11-82.66-5.19-1029.15-5.19-1029.15,0-77.74,26.82-190.29,96.51-289.25,39.2-55.67,74.37-97.76,122.58-125.47,37.92-21.8,74.71-26.92,121.93-17.17,0,0,554.77,109.1,589.67,116.18-34.89-7.08-607.09-129.78-607.09-129.78-47.22-9.75-66.29-6.75-106.1,11.36-51.19,23.29-100.61,74.13-139.81,129.8-69.69,98.96-99.35,226.59-99.35,304.33,0,0,6.18,950.11,5.22,1029.15-.53,42.84,13.87,104.92,81.25,122.67,53.09,13.98,146.59-43.35,208.86-133.18-62.27,89.83-155.87,134.37-208.86,119.98h-.01Z"/>
    <path class="cls-12" d="M6768.38,1471.28c0-77.74,26.82-190.29,96.52-289.25,39.2-55.67,74.37-97.76,122.57-125.47,37.92-21.8,74.71-26.92,121.94-17.17,0,0,554.77,109.1,589.67,116.18,34.89,7.09,72.95,30.77,78.03,103.52,5.07,72.74-14.09,187.71-95.53,306.28-81.44,118.56-577.26,834.74-639.53,924.56-62.27,89.81-155.87,147.56-208.86,133.18-62.44-16.95-59.01-77.95-59.61-122.67-1.11-82.66-5.2-1029.15-5.2-1029.15h0Z"/>
    <path class="cls-9" d="M6833.17,2609.88c-62.44-16.95-59.01-64.75-59.61-109.48-1.11-82.66-5.19-1029.15-5.19-1029.15,0-77.74,26.82-190.29,96.51-289.25,39.2-55.67,74.37-97.76,122.58-125.47,37.92-21.8,74.71-26.92,121.93-17.17,0,0,554.77,109.1,589.67,116.18-34.89-7.08-607.09-129.78-607.09-129.78-47.22-9.75-66.29-6.75-106.1,11.36-51.19,23.29-100.61,74.13-139.81,129.8-69.69,98.96-99.35,226.59-99.35,304.33,0,0,6.18,950.11,5.22,1029.15-.53,42.84,13.87,104.92,81.25,122.67,53.09,13.98,146.59-43.35,208.86-133.18-62.27,89.83-155.87,134.37-208.86,119.98h-.01Z"/>
    <path class="cls-6" d="M6833.17,2609.88c-62.44-16.95-59.01-64.75-59.61-109.48-1.11-82.66-5.19-1029.15-5.19-1029.15,0-77.74,26.82-190.29,96.51-289.25,39.2-55.67,74.37-97.76,122.58-125.47,37.92-21.8,74.71-26.92,121.93-17.17,0,0,554.77,109.1,589.67,116.18-34.89-7.08-607.09-129.78-607.09-129.78-47.22-9.75-66.29-6.75-106.1,11.36-51.19,23.29-100.61,74.13-139.81,129.8-69.69,98.96-99.35,226.59-99.35,304.33,0,0,6.18,950.11,5.22,1029.15-.53,42.84,13.87,104.92,81.25,122.67,53.09,13.98,146.59-43.35,208.86-133.18-62.27,89.83-155.87,134.37-208.86,119.98h-.01Z"/>
    <path class="cls-11" d="M7048.66,1020.3v7.65c11.08,0,23.95,1.63,41.71,5.3,5.92,1.27,572.63,122.79,607.16,129.8,19.1,3.87,34.6,12.22,46.08,24.79,14.98,16.41,23.68,40.56,25.86,71.76,1.98,28.51.98,75.06-15.08,134.87-15.86,59.08-42.48,116.07-79.12,169.41-80.97,117.87-573.38,829.16-639.51,924.53-26.14,37.71-59.71,71.8-94.51,96.01-33.36,23.2-65.63,35.98-90.86,35.98-5.5,0-10.62-.62-15.27-1.84-27.95-7.37-48.56-23.53-61.25-48.06-12.22-23.59-14.52-49.53-14.31-67.14.95-78.11-5.14-1017.72-5.22-1029.26,0-41.69,8.04-93.68,22.04-142.65,17.01-59.5,42.43-114.28,73.5-158.39,43.25-61.42,93.97-108.43,139.14-128.98,23.01-10.47,39.34-16.14,59.63-16.14v-7.65M7048.66,1020.3c-20.85,0-37.7,5.42-62.79,16.83-51.19,23.29-103.03,75.87-142.23,131.53-69.69,98.96-96.93,227.73-96.93,305.47,0,0,6.18,950.11,5.22,1029.15-.53,42.84,13.87,104.92,81.25,122.67,5.35,1.41,11.11,2.09,17.22,2.09,54.4,0,135.64-54.51,191.64-135.27,62.28-89.83,558.1-806,639.53-924.56,81.44-118.57,100.6-236.4,95.53-309.15-5.07-72.74-43.14-96.42-78.03-103.51-34.89-7.09-607.09-129.78-607.09-129.78-17.46-3.61-31.07-5.48-43.31-5.48h-.01Z"/>
    <path class="cls-15" d="M5020.14,1257.62c0-52.11,34.67-130.37,80.22-184.87,0,0,685.48-823.05,731.81-878.8,46.33-55.75,139.16-127.53,210.01-157.39,70.85-29.86,117.41-22.78,138.66,23.28,21.26,46.05,200.54,439.46,221.91,486.27,20.21,44.3,16.58,83.22-25.24,166.44-53.02,105.51-193.99,229.16-289.25,263.91-104.64,38.18-864.03,314.28-943.43,343.06-79.4,28.77-124.69-17-124.69-61.91Z"/>
    <path class="cls-29" d="M6402.74,546.11c-21.36-46.82-200.65-440.22-221.91-486.27-14.77-32-41.75-45.17-80.59-40.23,34.37-3.69,55.65,10.18,70.08,41.47,21.26,46.05,194.14,420.54,214.85,467.65,16.71,38.02,16.96,77.69-21.72,153.8-50.98,100.32-195.18,235.82-290.43,270.58-104.65,38.18-868.91,319.09-948.31,347.87-79.4,28.78-99.49-8.48-99.49-53.39,0-30.79,10.33-67.21,28.18-103.1-20.37,39.9-33.26,81.36-33.26,113.13,0,44.91,45.3,90.68,124.69,61.89,79.39-28.77,838.78-304.87,943.43-343.06,95.26-34.76,236.22-158.41,289.25-263.91,41.82-83.23,45.45-122.13,25.24-166.44h-.01Z"/>
    <path class="cls-19" d="M6402.74,546.11c-21.36-46.82-200.65-440.22-221.91-486.27-14.77-32-41.75-45.17-80.59-40.23,34.37-3.69,55.65,10.18,70.08,41.47,21.26,46.05,194.14,420.54,214.85,467.65,16.71,38.02,16.96,77.69-21.72,153.8-50.98,100.32-195.18,235.82-290.43,270.58-104.65,38.18-868.91,319.09-948.31,347.87-79.4,28.78-99.49-8.48-99.49-53.39,0-30.79,10.33-67.21,28.18-103.1-20.37,39.9-33.26,81.36-33.26,113.13,0,44.91,45.3,90.68,124.69,61.89,79.39-28.77,838.78-304.87,943.43-343.06,95.26-34.76,236.22-158.41,289.25-263.91,41.82-83.23,45.45-122.13,25.24-166.44h-.01Z"/>
    <path class="cls-30" d="M5025.22,1247.58c0-52.11,29.58-120.34,75.13-174.85,0,0,685.48-823.05,731.81-878.79,46.33-55.75,139.16-127.53,210.01-157.39,70.85-29.86,106.9-21.53,128.16,24.52,21.26,46.05,194.14,420.54,214.84,467.65,16.71,38.03,16.96,77.69-21.71,153.8-50.98,100.32-195.19,235.82-290.44,270.58-104.65,38.18-868.91,319.09-948.3,347.86-79.39,28.78-99.49-8.47-99.49-53.38h0Z"/>
    <path class="cls-5" d="M6402.74,546.11c-21.36-46.82-200.65-440.22-221.91-486.27-14.77-32-41.75-45.17-80.59-40.23,34.37-3.69,55.65,10.18,70.08,41.47,21.26,46.05,194.14,420.54,214.85,467.65,16.71,38.02,16.96,77.69-21.72,153.8-50.98,100.32-195.18,235.82-290.43,270.58-104.65,38.18-868.91,319.09-948.31,347.87-79.4,28.78-99.49-8.48-99.49-53.39,0-30.79,10.33-67.21,28.18-103.1-20.37,39.9-33.26,81.36-33.26,113.13,0,44.91,45.3,90.68,124.69,61.89,79.39-28.77,838.78-304.87,943.43-343.06,95.26-34.76,236.22-158.41,289.25-263.91,41.82-83.23,45.45-122.13,25.24-166.44h-.01Z"/>
    <path class="cls-19" d="M6402.74,546.11c-21.36-46.82-200.65-440.22-221.91-486.27-14.77-32-41.75-45.17-80.59-40.23,34.37-3.69,55.65,10.18,70.08,41.47,21.26,46.05,194.14,420.54,214.85,467.65,16.71,38.02,16.96,77.69-21.72,153.8-50.98,100.32-195.18,235.82-290.43,270.58-104.65,38.18-868.91,319.09-948.31,347.87-79.4,28.78-99.49-8.48-99.49-53.39,0-30.79,10.33-67.21,28.18-103.1-20.37,39.9-33.26,81.36-33.26,113.13,0,44.91,45.3,90.68,124.69,61.89,79.39-28.77,838.78-304.87,943.43-343.06,95.26-34.76,236.22-158.41,289.25-263.91,41.82-83.23,45.45-122.13,25.24-166.44h-.01Z"/>
    <path class="cls-4" d="M6402.74,546.11c-21.36-46.82-200.65-440.22-221.91-486.27-14.77-32-41.75-45.17-80.59-40.23,34.37-3.69,55.65,10.18,70.08,41.47,21.26,46.05,194.14,420.54,214.85,467.65,16.71,38.02,16.96,77.69-21.72,153.8-50.98,100.32-195.18,235.82-290.43,270.58-104.65,38.18-868.91,319.09-948.31,347.87-79.4,28.78-99.49-8.48-99.49-53.39,0-30.79,10.33-67.21,28.18-103.1-20.37,39.9-33.26,81.36-33.26,113.13,0,44.91,45.3,90.68,124.69,61.89,79.39-28.77,838.78-304.87,943.43-343.06,95.26-34.76,236.22-158.41,289.25-263.91,41.82-83.23,45.45-122.13,25.24-166.44h-.01Z"/>
    <path class="cls-31" d="M6115.43,28.15c27.09,0,43.3,13.42,54.38,37.44,17.18,37.21,139.27,298.13,196.81,424.35,13.46,29.5,23.33,51.17,27.42,60.13,10.06,22.05,13.02,41,9.88,63.33-3.41,24.29-14.19,53.54-34.96,94.85-12.5,24.88-30.33,51.49-53.01,79.08-21.54,26.22-46.31,51.98-73.63,76.6-54.7,49.28-112.05,87.03-157.33,103.55-100.55,36.69-860.7,313.06-943.42,343.05-15.38,5.58-30,8.41-43.46,8.41-20.77,0-38.42-6.72-51.03-19.43-11.05-11.14-17.4-26.41-17.4-41.89,0-23.74,7.89-54.89,22.23-87.73,14.33-32.82,34.13-65.14,55.78-91.04,6.85-8.23,686.02-823.7,731.81-878.81,22.17-26.68,56.52-58.36,94.22-86.89,39.5-29.89,79.33-53.97,112.14-67.8,27.12-11.43,50.52-17.22,69.55-17.22M6115.43,18.6c-20.5,0-44.94,6.03-73.26,17.97-70.86,29.86-163.69,101.64-210.01,157.38-46.33,55.75-731.81,878.79-731.81,878.79-45.53,54.5-80.21,132.75-80.21,184.88,0,35.17,27.78,70.87,77.98,70.87,13.89,0,29.5-2.73,46.71-8.97,79.39-28.78,838.78-304.87,943.43-343.05,95.26-34.76,236.22-158.41,289.25-263.91,41.82-83.23,45.45-122.13,25.24-166.44-21.36-46.82-200.65-440.22-221.91-486.27-12.75-27.65-34.63-41.25-65.41-41.25h0Z"/>
    <path class="cls-3" d="M6362.35,66.29c-13.52-29.03-15.5-36.65-7.87-47.48,7.63-10.82,10.58-23.62,48.22-16.23,37.64,7.38,118.69,39.41,257.44,142.4,138.74,102.99,749.97,557.48,846.41,629.01,96.44,71.52,166.57,148.83,180.28,181.93,11.11,25.92,5.96,31.42-1.71,40.55-6.43,7.67-10.6,15.66-32.86,13.39,0,0-79.43-17.3-173.35-39.13-93.92-21.83-331.59-76.37-446.56-103.14-114.97-26.77-244.02-123.13-289.57-159.41-30.24-24.1-76.81-61.7-124.66-119.18-19.3-23.17-32.38-46.13-49.51-83.56-52.07-113.78-206.27-439.14-206.27-439.14h.01Z"/>
    <path class="cls-8" d="M7678.8,943.86c3.95,11.22,6.22,31.7.48,37.19-5.26,5.04-14.86,3.11-32.35-.97,0,0-66.89-18.73-160.81-40.56-93.93-21.83-331.75-79.47-446.72-106.24-114.97-26.77-228.76-118.26-274.31-154.54-30.24-24.1-66.6-53.11-114.45-110.59-19.29-23.17-48.25-77.3-66.07-114.4-54.49-113.44-200.45-403.11-200.45-403.11-13.53-29.03-11.12-37.41-4.59-42.97,3.23-2.75,10.43-3.45,28.1-.43,36.63,6.25,109.06,33.01,239.69,128.31-130.95-95.54-208.16-125.82-244.62-132.97-37.64-7.38-40.59,5.41-48.22,16.23-7.63,10.82-5.65,18.45,7.87,47.48,0,0,154.2,325.36,206.27,439.14,17.13,37.42,30.21,60.38,49.51,83.56,47.85,57.48,94.42,95.08,124.66,119.18,45.54,36.28,174.61,132.64,289.57,159.41,114.97,26.77,352.63,81.31,446.56,103.14,93.93,21.83,173.34,39.13,173.34,39.13,22.27,2.27,26.44-5.72,32.87-13.39,7.67-9.14,4.78-26.7-6.34-52.61h.01Z"/>
    <path class="cls-28" d="M7678.8,943.86c3.95,11.22,6.22,31.7.48,37.19-5.26,5.04-14.86,3.11-32.35-.97,0,0-66.89-18.73-160.81-40.56-93.93-21.83-331.75-79.47-446.72-106.24-114.97-26.77-228.76-118.26-274.31-154.54-30.24-24.1-66.6-53.11-114.45-110.59-19.29-23.17-48.25-77.3-66.07-114.4-54.49-113.44-200.45-403.11-200.45-403.11-13.53-29.03-11.12-37.41-4.59-42.97,3.23-2.75,10.43-3.45,28.1-.43,36.63,6.25,109.06,33.01,239.69,128.31-130.95-95.54-208.16-125.82-244.62-132.97-37.64-7.38-40.59,5.41-48.22,16.23-7.63,10.82-5.65,18.45,7.87,47.48,0,0,154.2,325.36,206.27,439.14,17.13,37.42,30.21,60.38,49.51,83.56,47.85,57.48,94.42,95.08,124.66,119.18,45.54,36.28,174.61,132.64,289.57,159.41,114.97,26.77,352.63,81.31,446.56,103.14,93.93,21.83,173.34,39.13,173.34,39.13,22.27,2.27,26.44-5.72,32.87-13.39,7.67-9.14,4.78-26.7-6.34-52.61h.01Z"/>
    <g>
      <path class="cls-32" d="M6373.38,53.57c-13.53-29.03-12.9-41.87-6.37-47.43,3.23-2.75,23.43-4.93,40.91-1.01,38.01,8.54,113.48,36.87,252.23,139.86,138.74,102.99,746.01,559.33,842.45,630.86,96.45,71.52,163.97,144.96,177.69,178.07,3.94,11.22,10.79,28.85,5.05,34.34-5.26,5.04-11.71,5.78-29.22,1.7,0,0-80.05-20.96-173.98-42.79-93.93-21.83-328.14-77.95-443.1-104.72-114.97-26.77-230.63-119.13-276.17-155.41-30.25-24.1-71.4-55.33-119.25-112.81-19.29-23.17-42.38-45.96-59.51-83.39-52.07-113.78-210.75-437.26-210.75-437.26h.02Z"/>
      <path class="cls-2" d="M6373.38,53.57c-13.53-29.03-12.9-41.87-6.37-47.43,3.23-2.75,23.43-4.93,40.91-1.01,38.01,8.54,113.48,36.87,252.23,139.86,138.74,102.99,746.01,559.33,842.45,630.86,96.45,71.52,163.97,144.96,177.69,178.07,3.94,11.22,10.79,28.85,5.05,34.34-5.26,5.04-11.71,5.78-29.22,1.7,0,0-80.05-20.96-173.98-42.79-93.93-21.83-328.14-77.95-443.1-104.72-114.97-26.77-230.63-119.13-276.17-155.41-30.25-24.1-71.4-55.33-119.25-112.81-19.29-23.17-42.38-45.96-59.51-83.39-52.07-113.78-210.75-437.26-210.75-437.26h.02Z"/>
    </g>
    <path class="cls-7" d="M7673.12,943.88c3.95,11.22,6.22,31.7.48,37.19-5.26,5.04-14.86,3.11-32.35-.97,0,0-66.9-18.73-160.81-40.56-93.93-21.83-331.75-79.47-446.72-106.24-114.97-26.77-228.76-118.26-274.31-154.54-30.24-24.1-64.72-58.75-112.57-116.23-19.3-23.17-47.31-71.67-65.13-108.76-54.49-113.44-199.51-403.11-199.51-403.11-13.53-29.03-14.88-37.41-8.35-42.97,3.23-2.75,10.43-3.45,28.1-.43,36.63,6.25,109.06,33.01,239.68,128.31-130.94-95.54-208.04-126.38-244.61-132.97-32.99-5.95-35.33,7.5-43.35,18.72-6.17,8.63-4.86,15.97,8.67,45,0,0,150.68,317.7,202.75,431.48,17.13,37.42,33.73,68.04,53.02,91.21,47.85,57.48,90.4,91.26,120.65,115.36,45.54,36.28,172.95,134.59,287.92,161.36,114.97,26.77,352.63,81.31,446.56,103.14,93.93,21.83,173.34,40.08,173.34,40.08,22.27,2.26,26.44-4.78,32.87-12.46,7.67-9.14,4.78-26.7-6.34-52.61h.01Z"/>
    <path class="cls-36" d="M7673.12,943.88c3.95,11.22,6.22,31.7.48,37.19-5.26,5.04-14.86,3.11-32.35-.97,0,0-66.9-18.73-160.81-40.56-93.93-21.83-331.75-79.47-446.72-106.24-114.97-26.77-228.76-118.26-274.31-154.54-30.24-24.1-64.72-58.75-112.57-116.23-19.3-23.17-47.31-71.67-65.13-108.76-54.49-113.44-199.51-403.11-199.51-403.11-13.53-29.03-14.88-37.41-8.35-42.97,3.23-2.75,10.43-3.45,28.1-.43,36.63,6.25,109.06,33.01,239.68,128.31-130.94-95.54-208.04-126.38-244.61-132.97-32.99-5.95-35.33,7.5-43.35,18.72-6.17,8.63-4.86,15.97,8.67,45,0,0,150.68,317.7,202.75,431.48,17.13,37.42,33.73,68.04,53.02,91.21,47.85,57.48,90.4,91.26,120.65,115.36,45.54,36.28,172.95,134.59,287.92,161.36,114.97,26.77,352.63,81.31,446.56,103.14,93.93,21.83,173.34,40.08,173.34,40.08,22.27,2.26,30.48-7.89,36.91-15.56,7.67-9.14,3.49-24.38-10.38-49.51h.01Z"/>
    <path class="cls-36" d="M7673.12,943.88c3.95,11.22,6.22,31.7.48,37.19-5.26,5.04-14.86,3.11-32.35-.97,0,0-66.9-18.73-160.81-40.56-93.93-21.83-331.75-79.47-446.72-106.24-114.97-26.77-228.76-118.26-274.31-154.54-30.24-24.1-64.72-58.75-112.57-116.23-19.3-23.17-47.31-71.67-65.13-108.76-54.49-113.44-199.51-403.11-199.51-403.11-13.53-29.03-14.88-37.41-8.35-42.97,3.23-2.75,10.43-3.45,28.1-.43,36.63,6.25,109.06,33.01,239.68,128.31-130.94-95.54-208.04-126.38-244.61-132.97-32.99-5.95-35.33,7.5-43.35,18.72-6.17,8.63-4.86,15.97,8.67,45,0,0,150.68,317.7,202.75,431.48,17.13,37.42,33.73,68.04,53.02,91.21,47.85,57.48,90.4,91.26,120.65,115.36,45.54,36.28,172.95,134.59,287.92,161.36,114.97,26.77,352.63,81.31,446.56,103.14,93.93,21.83,173.34,40.08,173.34,40.08,22.27,2.26,26.44-4.78,32.87-12.46,7.67-9.14,4.78-26.7-6.34-52.61h.01Z"/>
    <path class="cls-26" d="M7673.12,943.88c3.95,11.22,6.22,31.7.48,37.19-5.26,5.04-14.86,3.11-32.35-.97,0,0-66.9-18.73-160.81-40.56-93.93-21.83-331.75-79.47-446.72-106.24-114.97-26.77-228.76-118.26-274.31-154.54-30.24-24.1-64.72-58.75-112.57-116.23-19.3-23.17-47.31-71.67-65.13-108.76-54.49-113.44-199.51-403.11-199.51-403.11-13.53-29.03-14.88-37.41-8.35-42.97,3.23-2.75,10.43-3.45,28.1-.43,36.63,6.25,109.06,33.01,239.68,128.31-130.94-95.54-208.04-126.38-244.61-132.97-32.99-5.95-35.33,7.5-43.35,18.72-6.17,8.63-4.86,15.97,8.67,45,0,0,150.68,317.7,202.75,431.48,17.13,37.42,33.73,68.04,53.02,91.21,47.85,57.48,90.4,91.26,120.65,115.36,45.54,36.28,172.95,134.59,287.92,161.36,114.97,26.77,352.63,81.31,446.56,103.14,93.93,21.83,173.34,40.08,173.34,40.08,22.27,2.26,26.44-4.78,32.87-12.46,7.67-9.14,4.78-26.7-6.34-52.61h.01Z"/>
    <path class="cls-1" d="M7673.12,943.88c3.95,11.22,6.22,31.7.48,37.19-5.26,5.04-14.86,3.11-32.35-.97,0,0-66.9-18.73-160.81-40.56-93.93-21.83-331.75-79.47-446.72-106.24-114.97-26.77-228.76-118.26-274.31-154.54-30.24-24.1-64.72-58.75-112.57-116.23-19.3-23.17-47.31-71.67-65.13-108.76-54.49-113.44-199.51-403.11-199.51-403.11-13.53-29.03-14.88-37.41-8.35-42.97,3.23-2.75,10.43-3.45,28.1-.43,36.63,6.25,109.06,33.01,239.68,128.31-130.94-95.54-208.04-126.38-244.61-132.97-32.99-5.95-35.33,7.5-43.35,18.72-6.17,8.63-4.86,15.97,8.67,45,0,0,150.68,317.7,202.75,431.48,17.13,37.42,33.73,68.04,53.02,91.21,47.85,57.48,90.4,91.26,120.65,115.36,45.54,36.28,172.95,134.59,287.92,161.36,114.97,26.77,352.63,81.31,446.56,103.14,93.93,21.83,173.34,40.08,173.34,40.08,22.27,2.26,26.44-4.78,32.87-12.46,15.07-15.72,4.78-26.7-6.34-52.61h.01Z"/>
    <path class="cls-27" d="M7673.12,943.88c3.95,11.22,6.22,31.7.48,37.19-5.26,5.04-14.86,3.11-32.35-.97,0,0-66.9-18.73-160.81-40.56-93.93-21.83-331.75-79.47-446.72-106.24-114.97-26.77-228.76-118.26-274.31-154.54-30.24-24.1-64.72-58.75-112.57-116.23-19.3-23.17-47.31-71.67-65.13-108.76-54.49-113.44-199.51-403.11-199.51-403.11-13.53-29.03-14.88-37.41-8.35-42.97,3.23-2.75,10.43-3.45,28.1-.43,36.63,6.25,109.06,33.01,239.68,128.31-130.94-95.54-208.04-126.38-244.61-132.97-32.99-5.95-35.33,7.5-43.35,18.72-6.17,8.63-4.86,15.97,8.67,45,0,0,150.68,317.7,202.75,431.48,17.13,37.42,33.73,68.04,53.02,91.21,47.85,57.48,90.4,91.26,120.65,115.36,45.54,36.28,172.95,134.59,287.92,161.36,114.97,26.77,352.63,81.31,446.56,103.14,93.93,21.83,173.34,40.08,173.34,40.08,22.27,2.26,26.44-4.78,32.87-12.46,7.67-9.14,4.78-26.7-6.34-52.61h.01Z"/>
    <path class="cls-23" d="M7673.12,943.88c3.95,11.22,6.22,31.7.48,37.19-5.26,5.04-14.86,3.11-32.35-.97,0,0-66.9-18.73-160.81-40.56-93.93-21.83-331.75-79.47-446.72-106.24-114.97-26.77-228.76-118.26-274.31-154.54-30.24-24.1-64.72-58.75-112.57-116.23-19.3-23.17-47.31-71.67-65.13-108.76-54.49-113.44-199.51-403.11-199.51-403.11-13.53-29.03-14.88-37.41-8.35-42.97,3.23-2.75,10.43-3.45,28.1-.43,36.63,6.25,109.06,33.01,239.68,128.31-130.94-95.54-208.04-126.38-244.61-132.97-32.99-5.95-35.33,7.5-43.35,18.72-6.17,8.63-4.86,15.97,8.67,45,0,0,150.68,317.7,202.75,431.48,17.13,37.42,33.73,68.04,53.02,91.21,47.85,57.48,90.4,91.26,120.65,115.36,45.54,36.28,172.95,134.59,287.92,161.36,114.97,26.77,352.63,81.31,446.56,103.14,93.93,21.83,173.34,40.08,173.34,40.08,22.27,2.26,26.44-4.78,32.87-12.46,7.67-9.14,4.78-26.7-6.34-52.61h.01Z"/>
    <path class="cls-25" d="M7673.12,943.88c3.95,11.22,6.22,31.7.48,37.19-5.26,5.04-14.86,3.11-32.35-.97,0,0-66.9-18.73-160.81-40.56-93.93-21.83-331.75-79.47-446.72-106.24-114.97-26.77-228.76-118.26-274.31-154.54-30.24-24.1-64.72-58.75-112.57-116.23-19.3-23.17-47.31-71.67-65.13-108.76-54.49-113.44-199.51-403.11-199.51-403.11-13.53-29.03-14.88-37.41-8.35-42.97,3.23-2.75,10.43-3.45,28.1-.43,36.63,6.25,109.06,33.01,239.68,128.31-130.94-95.54-208.04-126.38-244.61-132.97-32.99-5.95-35.33,7.5-43.35,18.72-6.17,8.63-4.86,15.97,8.67,45,0,0,150.68,317.7,202.75,431.48,17.13,37.42,33.73,68.04,53.02,91.21,47.85,57.48,90.4,91.26,120.65,115.36,45.54,36.28,172.95,134.59,287.92,161.36,114.97,26.77,352.63,81.31,446.56,103.14,93.93,21.83,173.34,40.08,173.34,40.08,22.27,2.26,26.44-4.78,32.87-12.46,7.67-9.14,4.78-26.7-6.34-52.61h.01Z"/>
    <path class="cls-23" d="M7673.12,943.88c3.95,11.22,6.22,31.7.48,37.19-5.26,5.04-14.86,3.11-32.35-.97,0,0-66.9-18.73-160.81-40.56-93.93-21.83-331.75-79.47-446.72-106.24-114.97-26.77-228.76-118.26-274.31-154.54-30.24-24.1-64.72-58.75-112.57-116.23-19.3-23.17-47.31-71.67-65.13-108.76-54.49-113.44-199.51-403.11-199.51-403.11-13.53-29.03-14.88-37.41-8.35-42.97,3.23-2.75,10.43-3.45,28.1-.43,36.63,6.25,109.06,33.01,239.68,128.31-130.94-95.54-208.04-126.38-244.61-132.97-32.99-5.95-35.33,7.5-43.35,18.72-6.17,8.63-4.86,15.97,8.67,45,0,0,150.68,317.7,202.75,431.48,17.13,37.42,33.73,68.04,53.02,91.21,47.85,57.48,90.4,91.26,120.65,115.36,45.54,36.28,172.95,134.59,287.92,161.36,114.97,26.77,352.63,81.31,446.56,103.14,93.93,21.83,173.34,40.08,173.34,40.08,22.27,2.26,26.44-4.78,32.87-12.46,7.67-9.14,4.78-26.7-6.34-52.61h.01Z"/>
    <path class="cls-24" d="M7676.25,945.4c3.94,11.22,6.22,31.7.48,37.19-5.26,5.03-14.86,3.11-32.35-.97,0,0-66.9-18.73-160.82-40.56-93.93-21.83-331.74-79.47-446.71-106.24-114.97-26.77-228.77-118.26-274.31-154.54-30.25-24.09-64.72-58.75-112.57-116.23-19.3-23.17-47.31-71.67-65.13-108.76-54.49-113.44-199.52-403.11-199.52-403.11-13.52-29.03-14.88-37.41-8.35-42.97,3.23-2.75,10.44-3.45,28.11-.43,36.63,6.25,109.06,33.01,239.68,128.31-130.93-95.54-208.04-126.38-244.6-132.97-32.99-5.95-35.33,7.5-43.36,18.72-6.16,8.63-4.85,15.97,8.67,45,0,0,150.69,317.7,202.76,431.48,17.13,37.42,33.72,68.04,53.02,91.21,47.85,57.48,90.4,91.26,120.64,115.36,45.55,36.28,172.95,134.58,287.92,161.36,114.98,26.77,352.64,81.31,446.57,103.14,93.93,21.83,173.34,40.08,173.34,40.08,22.26,2.26,26.44-4.79,32.87-12.46,7.67-9.14,4.77-26.7-6.34-52.61h0Z"/>
    <path class="cls-33" d="M6383.49,7.91c4.87,0,10.84.69,17.76,2.05,15.89,3.11,44.18,11.65,88.81,34.65,48.28,24.87,104,60.67,165.6,106.4,66.82,49.61,245.87,182.69,419.02,311.4,185.54,137.92,377.4,280.53,427.39,317.6,56.06,41.58,96.32,79.81,120.24,104.56,29.42,30.46,50.95,58.2,57.58,74.21l.02.04.02.04c4.45,10.38,6.31,17.69,5.68,22.34-.46,3.42-1.73,6.03-5.37,10.37l-.36.43c-.59.7-1.16,1.4-1.72,2.1-4.55,5.6-9.37,5.18-20.34,5.18-1.81,0-3.82-.1-5.96-.31-14.95-2.89-81.95-14.82-171.25-35.57-42.23-9.82-106.43-29.15-182.24-46.61-95.2-21.93-201.04-41.8-264.31-56.54-48.76-11.36-105.48-36.66-168.61-75.23-52.73-32.22-96.56-65.66-117.99-82.73-36.26-28.88-75.52-64.13-120.39-118.03-18.25-22.18-31.97-44.59-49.74-83.42-51.39-112.31-206.08-433.33-208.17-437.75-13.98-29.99-13.25-33.26-8.53-39.95.93-1.32,1.77-2.64,2.59-3.9,4.54-7.07,7.3-11.34,20.27-11.34ZM6383.49.4c-19.84,0-22.96,9.84-29.01,18.42-7.63,10.82-5.65,18.45,7.87,47.48,0,0,154.2,325.36,206.27,439.14,17.13,37.43,28.04,63.1,47.33,86.27,47.86,57.48,94.89,95.32,125.13,119.42,45.55,36.28,175.59,134.56,290.55,161.33,114.97,26.77,353.36,76.44,447.29,98.27,93.93,21.83,173.34,39.13,173.34,39.13,2.62.27,4.98.39,7.13.39,16.15,0,20.07-7.02,25.74-13.79,7.67-9.13,12.82-14.64,1.71-40.55-13.72-33.1-83.84-110.41-180.28-181.93-96.45-71.52-707.68-526.02-846.41-629.01-138.76-102.98-219.81-135.01-257.45-142.38-7.77-1.52-14.05-2.19-19.21-2.19Z"/>
    <path class="cls-34" d="M6383.49,7.91c4.87,0,10.84.69,17.76,2.05,15.89,3.11,44.18,11.65,88.81,34.65,48.28,24.87,104,60.67,165.6,106.4,66.82,49.61,245.87,182.69,419.02,311.4,185.54,137.92,377.4,280.53,427.39,317.6,56.06,41.58,96.32,79.81,120.24,104.56,29.42,30.46,50.95,58.2,57.58,74.21l.02.04.02.04c4.45,10.38,6.31,17.69,5.68,22.34-.46,3.42-1.73,6.03-5.37,10.37l-.36.43c-.59.7-1.16,1.4-1.72,2.1-4.55,5.6-9.37,5.18-20.34,5.18-1.81,0-3.82-.1-5.96-.31-14.95-2.89-81.95-14.82-171.25-35.57-42.23-9.82-106.43-29.15-182.24-46.61-95.2-21.93-201.04-41.8-264.31-56.54-48.76-11.36-105.48-36.66-168.61-75.23-52.73-32.22-96.56-65.66-117.99-82.73-36.26-28.88-75.52-64.13-120.39-118.03-18.25-22.18-31.97-44.59-49.74-83.42-51.39-112.31-206.08-433.33-208.17-437.75-13.98-29.99-13.25-33.26-8.53-39.95.93-1.32,1.77-2.64,2.59-3.9,4.54-7.07,7.3-11.34,20.27-11.34ZM6383.49.4c-19.84,0-22.96,9.84-29.01,18.42-7.63,10.82-5.65,18.45,7.87,47.48,0,0,154.2,325.36,206.27,439.14,17.13,37.43,28.04,63.1,47.33,86.27,47.86,57.48,94.89,95.32,125.13,119.42,45.55,36.28,175.59,134.56,290.55,161.33,114.97,26.77,353.36,76.44,447.29,98.27,93.93,21.83,173.34,39.13,173.34,39.13,2.62.27,4.98.39,7.13.39,16.15,0,20.07-7.02,25.74-13.79,7.67-9.13,12.82-14.64,1.71-40.55-13.72-33.1-83.84-110.41-180.28-181.93-96.45-71.52-707.68-526.02-846.41-629.01-138.76-102.98-219.81-135.01-257.45-142.38-7.77-1.52-14.05-2.19-19.21-2.19Z"/>
    <path class="cls-35" d="M6383.35,7.8c4.9,0,10.92.69,17.89,2.06,16,3.13,44.49,11.73,89.44,34.9,48.61,25.05,104.73,61.1,166.75,107.15,67.3,49.96,247.61,183.97,421.97,313.59,186.85,138.89,380.06,282.5,430.39,319.84,56.46,41.87,97.01,80.37,121.09,105.3,29.63,30.67,51.31,58.61,57.99,74.73l.02.04.02.04c4.48,10.45,2.25,14.91,1.61,19.6-1.61,3.41-2.25,5.69-5.91,10.07l-.37.43c-.6.71-1.16,1.41-1.73,2.12-4.58,5.65-7.34,9.07-18.39,9.07-1.83,0-3.84-.11-6-.31-6.45-1.41-80.01-15.51-169.93-36.4-42.53-9.89-114.65-26.51-190.99-44.09-95.86-22.09-201.07-40.74-264.78-55.59-49.1-11.44-106.22-36.92-169.8-75.76-53.1-32.45-97.24-66.12-118.82-83.31-36.51-29.08-79.24-64.66-124.43-118.94-18.13-21.78-30.9-43.36-48.78-82.45-51.76-113.1-199.56-442.04-201.67-446.5-14.08-30.21-13.34-33.5-8.59-40.23.94-1.33,1.79-2.66,2.61-3.93,4.58-7.12,7.35-11.42,20.41-11.42ZM6383.35.23c-19.98,0-23.12,9.9-29.21,18.55-7.68,10.9-5.69,18.58,7.93,47.81,0,0,149.74,333.85,202.17,448.42,17.25,37.69,30.43,60.81,49.86,84.15,48.19,57.89,95.08,95.75,125.54,120.02,45.86,36.53,175.83,133.57,291.6,160.53,115.78,26.96,360.66,75.69,455.25,97.67,94.58,21.98,170.45,36.51,170.45,36.51,2.63.26,5.01.39,7.18.39,16.26,0,20.21-7.07,25.92-13.89,7.72-9.2,11.13-16.92,3.98-37.88-13.82-33.34-84.43-111.18-181.55-183.21-97.12-72.03-710.8-529.78-850.51-633.5-139.74-103.7-221.36-135.96-259.26-143.38-7.82-1.53-14.15-2.2-19.35-2.2Z"/>
  </g>
</svg>